<mxfile host="app.diagrams.net" modified="2022-09-14T07:04:56.955Z" agent="5.0 (Macintosh; Intel Mac OS X 10_15_7) AppleWebKit/537.36 (KHTML, like Gecko) Chrome/104.0.0.0 Safari/537.36" etag="arMv-psC9V4NxDDe1d_S" version="20.3.0" type="github">
  <diagram id="zK3LmJl8F1OW8WNWjIzd" name="第 1 页">
    <mxGraphModel dx="1234" dy="793" grid="1" gridSize="10" guides="1" tooltips="1" connect="1" arrows="1" fold="1" page="1" pageScale="1" pageWidth="827" pageHeight="1169" math="0" shadow="0">
      <root>
        <mxCell id="0" />
        <mxCell id="1" parent="0" />
        <mxCell id="XdyPKi1Rl9fKR1to2jpi-6" style="edgeStyle=orthogonalEdgeStyle;rounded=0;orthogonalLoop=1;jettySize=auto;html=1;exitX=1;exitY=0.5;exitDx=0;exitDy=0;entryX=0;entryY=0.5;entryDx=0;entryDy=0;fontSize=15;" edge="1" parent="1" source="XdyPKi1Rl9fKR1to2jpi-1" target="XdyPKi1Rl9fKR1to2jpi-2">
          <mxGeometry relative="1" as="geometry" />
        </mxCell>
        <mxCell id="XdyPKi1Rl9fKR1to2jpi-1" value="&lt;font style=&quot;font-size: 15px;&quot;&gt;获取accountID对应的group tag&lt;/font&gt;" style="rounded=0;whiteSpace=wrap;html=1;" vertex="1" parent="1">
          <mxGeometry x="160" y="350" width="120" height="60" as="geometry" />
        </mxCell>
        <mxCell id="XdyPKi1Rl9fKR1to2jpi-7" style="edgeStyle=orthogonalEdgeStyle;rounded=0;orthogonalLoop=1;jettySize=auto;html=1;exitX=1;exitY=0.5;exitDx=0;exitDy=0;entryX=0;entryY=0.5;entryDx=0;entryDy=0;fontSize=15;" edge="1" parent="1" source="XdyPKi1Rl9fKR1to2jpi-2" target="XdyPKi1Rl9fKR1to2jpi-3">
          <mxGeometry relative="1" as="geometry" />
        </mxCell>
        <mxCell id="XdyPKi1Rl9fKR1to2jpi-2" value="&lt;font style=&quot;font-size: 15px;&quot;&gt;获取group下的所有元集群&lt;/font&gt;" style="rounded=0;whiteSpace=wrap;html=1;" vertex="1" parent="1">
          <mxGeometry x="320" y="350" width="120" height="60" as="geometry" />
        </mxCell>
        <mxCell id="XdyPKi1Rl9fKR1to2jpi-10" style="edgeStyle=orthogonalEdgeStyle;rounded=0;orthogonalLoop=1;jettySize=auto;html=1;exitX=0.5;exitY=1;exitDx=0;exitDy=0;entryX=1;entryY=0.5;entryDx=0;entryDy=0;fontSize=15;" edge="1" parent="1" source="XdyPKi1Rl9fKR1to2jpi-3" target="XdyPKi1Rl9fKR1to2jpi-4">
          <mxGeometry relative="1" as="geometry" />
        </mxCell>
        <mxCell id="XdyPKi1Rl9fKR1to2jpi-3" value="&lt;font style=&quot;font-size: 15px;&quot;&gt;调度策略filter方法过滤元集群&lt;/font&gt;" style="rounded=0;whiteSpace=wrap;html=1;" vertex="1" parent="1">
          <mxGeometry x="480" y="350" width="120" height="60" as="geometry" />
        </mxCell>
        <mxCell id="XdyPKi1Rl9fKR1to2jpi-9" style="edgeStyle=orthogonalEdgeStyle;rounded=0;orthogonalLoop=1;jettySize=auto;html=1;exitX=0;exitY=0.5;exitDx=0;exitDy=0;entryX=1;entryY=0.5;entryDx=0;entryDy=0;fontSize=15;" edge="1" parent="1" source="XdyPKi1Rl9fKR1to2jpi-4" target="XdyPKi1Rl9fKR1to2jpi-5">
          <mxGeometry relative="1" as="geometry" />
        </mxCell>
        <mxCell id="XdyPKi1Rl9fKR1to2jpi-4" value="&lt;font style=&quot;font-size: 15px;&quot;&gt;调度策略score方法为每个元集群打分&lt;/font&gt;" style="rounded=0;whiteSpace=wrap;html=1;" vertex="1" parent="1">
          <mxGeometry x="390" y="470" width="120" height="60" as="geometry" />
        </mxCell>
        <mxCell id="XdyPKi1Rl9fKR1to2jpi-5" value="&lt;font style=&quot;font-size: 15px;&quot;&gt;返回得分最高的元集群&lt;/font&gt;" style="rounded=0;whiteSpace=wrap;html=1;" vertex="1" parent="1">
          <mxGeometry x="190" y="470" width="120" height="60" as="geometry" />
        </mxCell>
      </root>
    </mxGraphModel>
  </diagram>
</mxfile>
